<?xml version="1.0" encoding="UTF-8" standalone="no"?>
<!-- Created with Inkscape (http://www.inkscape.org/) -->

<svg
   version="1.1"
   id="svg9"
   width="392.04044"
   height="146.10884"
   viewBox="0 0 392.04043 146.10884"
   xmlns="http://www.w3.org/2000/svg"
   xmlns:svg="http://www.w3.org/2000/svg">
  <defs
     id="defs13">
    <clipPath
       clipPathUnits="userSpaceOnUse"
       id="clipPath23">
      <path
         d="M 0,236.465 H 425.197 V 0 H 0 Z"
         id="path21" />
    </clipPath>
  </defs>
  <g
     id="g15"
     transform="matrix(1.3333333,0,0,-1.3333333,-95.444748,235.45935)">
    <g
       id="g17">
      <g
         id="g19"
         clip-path="url(#clipPath23)">
        <g
           id="g25"
           transform="translate(83.4853,148.1054)">
          <path
             d="M 0,0 C 0.029,0.059 0.047,0.13 0.074,0.191 H -4.18 c -0.939,0 -1.816,-0.211 -2.606,-0.553 C -5.734,-0.108 -4.591,0 -3.384,0 Z"
             style="fill:#47a736;fill-opacity:1;fill-rule:nonzero;stroke:none"
             id="path27" />
        </g>
        <g
           id="g29"
           transform="translate(93.3868,102.6142)">
          <path
             d="M 0,0 C -1.106,1.353 -2.198,2.772 -3.014,3.906 -3.98,5.271 -3.98,7.162 -3.376,8.842 -1.443,14.723 1.459,25.958 3.875,35.41 h 1.209 0.001 c 3.456,0 6.029,-3.13 5.795,-5.874 C 10.45,24.501 4.561,5.794 3.134,1.787 2.771,0.767 2.398,0.128 1.579,-1.869 L -6.64,-14.891 c 0,0 -0.633,-0.867 -1.207,-1.645 -0.181,-0.247 -0.352,-0.478 -0.499,-0.676 -0.115,-0.154 -0.218,-0.291 -0.288,-0.383 l -0.003,0.004 c -3.718,-4.912 -7.857,-9.628 -12.866,-13.892 -0.605,-0.734 -0.241,-1.785 0.604,-1.785 h 17.04 c 1.209,-0.105 2.054,0.315 2.779,1.051 1.209,1.364 2.901,3.36 4.714,5.565 1.571,-1.89 3.382,-3.675 4.833,-5.251 0.726,-0.735 1.933,-1.365 3.263,-1.365 h 16.194 c 1.329,0 1.209,1.051 0.605,1.785 -5.801,5.67 -11.239,11.237 -16.437,16.907 5.289,8.534 8.504,17.968 10.403,27.488 0.956,4.788 1.575,9.627 1.899,14.478 0.298,4.445 1.369,9.459 -2.316,13.057 -3.205,3.128 -7.417,5.044 -12.281,5.044 H 5.93 c 0.225,1.048 0.388,2.106 0.52,3.179 0.03,0.096 0.082,0.182 0.108,0.281 l 0.853,3.274 c 0.931,3.577 -1.675,7.166 -5.792,7.976 -4.116,0.809 -8.246,-1.455 -9.178,-5.032 0,0 -1.725,-8.249 -2.269,-9.487 -0.027,-0.061 -0.045,-0.131 -0.073,-0.191 h -3.385 c -1.206,0 -2.35,-0.107 -3.402,-0.362 -1.946,-0.842 -3.304,-2.574 -3.304,-4.583 0,-2.825 2.66,-5.136 5.911,-5.136 h 0.433 1.692 c -1.571,-7.35 -3.988,-16.907 -6.527,-23.837 -1.328,-3.571 -2.295,-7.142 0,-10.817 3.043,-4.74 6.548,-9.236 10.184,-13.639"
             style="fill:#00a041;fill-opacity:1;fill-rule:nonzero;stroke:none"
             id="path31" />
        </g>
        <g
           id="g33"
           transform="translate(95.5653,102.2595)">
          <path
             d="m 0,0 c -0.203,-0.504 -0.386,-1.013 -0.599,-1.514 l 0.6,1.51 C 0.001,-0.004 0,0 0,0"
             style="fill:#47a736;fill-opacity:1;fill-rule:nonzero;stroke:none"
             id="path35" />
        </g>
        <g
           id="g37"
           transform="translate(85.0404,85.4024)">
          <path
             d="m 0,0 c -0.096,-0.127 -0.195,-0.253 -0.291,-0.379 l 0.004,-0.004 C -0.217,-0.292 -0.114,-0.154 0,0"
             style="fill:#47a736;fill-opacity:1;fill-rule:nonzero;stroke:none"
             id="path39" />
        </g>
        <g
           id="g41"
           transform="translate(86.7471,87.7233)">
          <path
             d="M 0,0 C -0.396,-0.551 -0.802,-1.098 -1.207,-1.645 -0.634,-0.867 0,0 0,0"
             style="fill:#47a736;fill-opacity:1;fill-rule:nonzero;stroke:none"
             id="path43" />
        </g>
        <g
           id="g45"
           transform="translate(191.481,85.8585)">
          <path
             d="m 0,0 -4.074,34.496 -32.258,-0.288 v 3.675 c 4.471,5.882 10.03,13.653 14.501,20.058 1.813,2.731 2.175,6.091 0.847,8.715 -1.571,2.941 -5.197,5.147 -11.239,5.147 h -20.949 -9.385 -2.597 c -3.257,0 -5.922,-2.315 -5.922,-5.146 0,-1.184 0.485,-2.264 1.266,-3.136 0.001,-0.004 0.002,-0.009 0.003,-0.014 0.156,-0.424 0.382,-0.594 0.652,-0.614 1.057,-0.85 2.457,-1.382 4.001,-1.382 h 1.269 10.713 12.973 c 1.33,0 1.692,-0.839 0.845,-1.785 -3.867,-5.356 -7.855,-10.606 -12.326,-15.751 -1.088,-1.261 -1.451,-2.731 -1.451,-4.307 v -5.46 h -18.611 c -0.845,0 -1.69,-0.629 -1.69,-1.365 v -7.455 c 0,-1.051 0.724,-1.471 1.69,-1.471 h 18.611 V -3.7 c 0,-1.576 -1.086,-2.626 -2.899,-2.731 h -8.219 c -0.845,0 -1.449,-0.735 -1.087,-1.471 l 2.658,-7.245 c 0.362,-1.051 0.968,-1.365 2.175,-1.365 h 9.306 c 5.076,0 8.823,1.155 11.36,3.57 2.417,2.31 3.505,5.67 3.505,9.976 v 26.883 l 23.094,0.269 4.074,-34.497 h 17.02 c 0.921,3.726 4.16,6.489 8.014,6.489 3.855,0 7.093,-2.763 8.015,-6.489 h 48.322 c 0.922,3.726 4.16,6.489 8.015,6.489 3.854,0 7.093,-2.763 8.015,-6.489 h 13.627 V 0 Z"
             style="fill:#00a041;fill-opacity:1;fill-rule:nonzero;stroke:none"
             id="path47" />
        </g>
        <g
           id="g49"
           transform="translate(277.3607,75.5479)">
          <path
             d="m 0,0 c -0.835,2.459 -3.05,4.221 -5.658,4.221 -2.608,0 -4.823,-1.762 -5.658,-4.221 -0.229,-0.675 -0.361,-1.399 -0.361,-2.157 0,-3.522 2.695,-6.378 6.019,-6.378 3.324,0 6.019,2.856 6.019,6.378 C 0.361,-1.399 0.229,-0.675 0,0"
             style="fill:#008cd6;fill-opacity:1;fill-rule:nonzero;stroke:none"
             id="path51" />
        </g>
        <g
           id="g53"
           transform="translate(213.0091,75.5479)">
          <path
             d="m 0,0 c -0.835,2.459 -3.05,4.221 -5.658,4.221 -2.609,0 -4.823,-1.762 -5.658,-4.221 -0.229,-0.675 -0.361,-1.399 -0.361,-2.157 0,-3.522 2.695,-6.378 6.019,-6.378 3.324,0 6.018,2.856 6.018,6.378 C 0.36,-1.399 0.229,-0.675 0,0"
             style="fill:#008cd6;fill-opacity:1;fill-rule:nonzero;stroke:none"
             id="path55" />
        </g>
        <g
           id="g57"
           transform="translate(264.888,114.3896)">
          <path
             d="m 0,0 h -50.722 c -1.489,0 -2.697,1.207 -2.697,2.696 0,1.49 1.208,2.697 2.697,2.697 L 0,5.393 C 1.489,5.393 2.697,4.186 2.697,2.696 2.697,1.207 1.489,0 0,0 m 0,-10.318 h -50.722 c -1.489,0 -2.697,1.207 -2.697,2.696 0,1.489 1.208,2.697 2.697,2.697 H 0 c 1.489,0 2.697,-1.208 2.697,-2.697 0,-1.489 -1.208,-2.696 -2.697,-2.696 m 0,-10.319 h -50.722 c -1.489,0 -2.697,1.208 -2.697,2.697 0,1.489 1.208,2.696 2.697,2.696 H 0 c 1.489,0 2.697,-1.207 2.697,-2.696 0,-1.489 -1.208,-2.697 -2.697,-2.697 m 14.414,-1.39 c 1.279,1.616 1.86,3.738 1.86,6.364 V 0.819 c 0,3.232 -1.162,5.758 -3.371,7.476 -2.092,1.616 -5.115,2.424 -8.952,2.424 h -31.996 -17.529 -8.254 -6.436 -5.771 c -0.814,0 -1.628,-0.707 -1.628,-1.414 v -27.089 c 0,-2.223 1.278,-3.94 2.79,-5.254 0.998,-0.929 2.17,-1.627 3.25,-2.078 h 71.6 c 1.946,0.824 3.36,1.812 4.437,3.089"
             style="fill:#008cd6;fill-opacity:1;fill-rule:nonzero;stroke:none"
             id="path59" />
        </g>
        <g
           id="g61"
           transform="translate(267.1316,132.1409)">
          <path
             d="m 0,0 h -7.213 c -1.886,0 -3.415,1.529 -3.415,3.416 0,1.886 1.529,3.416 3.415,3.416 H 0 c 1.886,0 3.416,-1.53 3.416,-3.416 C 3.416,1.529 1.886,0 0,0 m -24.926,0 h -7.213 c -1.886,0 -3.416,1.529 -3.416,3.416 0,1.886 1.53,3.416 3.416,3.416 h 7.213 c 1.886,0 3.415,-1.53 3.415,-3.416 C -21.511,1.529 -23.04,0 -24.926,0 m -24.927,0 h -7.212 c -1.887,0 -3.416,1.529 -3.416,3.416 0,1.886 1.529,3.416 3.416,3.416 h 7.212 c 1.887,0 3.416,-1.53 3.416,-3.416 C -46.437,1.529 -47.966,0 -49.853,0 m -14.76,11.7 c -4.358,0 -7.924,-3.566 -7.924,-7.925 V 3.056 c 0,-4.358 3.566,-7.924 7.924,-7.924 H 9.404 c 4.358,0 7.924,3.566 7.924,7.924 v 0.719 c 0,4.359 -3.566,7.925 -7.924,7.925 z"
             style="fill:#008cd6;fill-opacity:1;fill-rule:nonzero;stroke:none"
             id="path63" />
        </g>
        <g
           id="g65"
           transform="translate(191.8035,155.1978)">
          <path
             d="M 0,0 H 39.876 V -3.435 H 9.184 c -0.697,0 -1.395,-0.505 -1.395,-1.111 v -3.738 c 0,-0.606 0.581,-0.909 1.279,-0.909 h 77.194 c 0.582,0 1.28,0.202 1.28,1.01 v 3.637 c 0,0.606 -0.814,1.111 -1.396,1.111 H 55.688 V 0 H 95.33 c 0.698,0 1.396,0.606 1.396,1.313 v 4.243 c 0,0.808 -0.465,1.212 -1.396,1.212 H 55.688 C 55.673,6.861 55.639,6.946 55.62,7.037 v 4.876 H 39.923 c 0,0 -0.047,-3.932 -0.047,-5.145 H 0.117 c -0.815,0 -1.396,-0.505 -1.396,-1.01 V 1.111 C -1.279,0.404 -0.581,0 0,0"
             style="fill:#008cd6;fill-opacity:1;fill-rule:nonzero;stroke:none"
             id="path67" />
        </g>
        <g
           id="g69"
           transform="translate(358.8833,145.8419)">
          <path
             d="m 0,0 h -24.022 v 16.397 7.625 c 0,3.517 -3.093,6.887 -6.725,6.725 -3.643,-0.164 -6.724,-2.955 -6.724,-6.725 V 0 h -16.397 -7.625 c -3.517,0 -6.887,-3.093 -6.725,-6.725 0.164,-3.643 2.955,-6.724 6.725,-6.724 h 24.022 v -16.397 -7.625 c 0,-3.517 3.093,-6.887 6.724,-6.725 3.644,0.164 6.725,2.955 6.725,6.725 v 24.022 H -7.625 0 c 3.517,0 6.887,3.093 6.725,6.724 C 6.561,-3.081 3.77,0 0,0"
             style="fill:#008cd6;fill-opacity:1;fill-rule:nonzero;stroke:none"
             id="path71" />
        </g>
      </g>
    </g>
  </g>
</svg>
